<?xml version="1.0" encoding="UTF-8" standalone="no"?><svg xmlns="http://www.w3.org/2000/svg" xmlns:xlink="http://www.w3.org/1999/xlink" contentScriptType="application/ecmascript" contentStyleType="text/css" height="619px" preserveAspectRatio="none" style="width:1075px;height:619px;" version="1.1" viewBox="0 0 1075 619" width="1075px" zoomAndPan="magnify"><defs><filter height="300%" id="f1ehyuvzzjay4z" width="300%" x="-1" y="-1"><feGaussianBlur result="blurOut" stdDeviation="2.0"/><feColorMatrix in="blurOut" result="blurOut2" type="matrix" values="0 0 0 0 0 0 0 0 0 0 0 0 0 0 0 0 0 0 .4 0"/><feOffset dx="4.0" dy="4.0" in="blurOut2" result="blurOut3"/><feBlend in="SourceGraphic" in2="blurOut3" mode="normal"/></filter></defs><g><text fill="#000000" font-family="sans-serif" font-size="18" lengthAdjust="spacingAndGlyphs" textLength="272" x="405.5" y="19.2419">stm — BenchController lifecycle</text><ellipse cx="1054.97" cy="430.0158" fill="#000000" filter="url(#f1ehyuvzzjay4z)" rx="10" ry="10" style="stroke: none; stroke-width: 1.0;"/><rect fill="#FEFECE" filter="url(#f1ehyuvzzjay4z)" height="50" rx="12.5" ry="12.5" style="stroke: #A80036; stroke-width: 1.5;" width="76" x="517.97" y="558.5158"/><line style="stroke: #A80036; stroke-width: 1.5;" x1="517.97" x2="593.97" y1="587.5838" y2="587.5838"/><text fill="#000000" font-family="sans-serif" font-size="14" lengthAdjust="spacingAndGlyphs" textLength="56" x="527.97" y="578.4818">Stopped</text><rect fill="#FEFECE" filter="url(#f1ehyuvzzjay4z)" height="50" rx="12.5" ry="12.5" style="stroke: #A80036; stroke-width: 1.5;" width="53" x="125.47" y="405.0158"/><line style="stroke: #A80036; stroke-width: 1.5;" x1="125.47" x2="178.47" y1="434.0838" y2="434.0838"/><text fill="#000000" font-family="sans-serif" font-size="14" lengthAdjust="spacingAndGlyphs" textLength="33" x="135.47" y="424.9818">Fault</text><path d="M671.47,126.5158 L671.47,163.0158 L636.25,167.0158 L671.47,171.0158 L671.47,207.3399 A0,0 0 0 0 671.47,207.3399 L924.47,207.3399 A0,0 0 0 0 924.47,207.3399 L924.47,136.5158 L914.47,126.5158 L671.47,126.5158 A0,0 0 0 0 671.47,126.5158 " fill="#FBFB77" filter="url(#f1ehyuvzzjay4z)" style="stroke: #A80036; stroke-width: 1.0;"/><path d="M914.47,126.5158 L914.47,136.5158 L924.47,136.5158 L914.47,126.5158 " fill="#FBFB77" style="stroke: #A80036; stroke-width: 1.0;"/><text fill="#000000" font-family="sans-serif" font-size="13" lengthAdjust="spacingAndGlyphs" textLength="232" x="677.47" y="145.4129">Repeated start does not reset cadence.</text><text fill="#000000" font-family="sans-serif" font-size="13" lengthAdjust="spacingAndGlyphs" textLength="168" x="677.47" y="163.1189">status/help do not transmit.</text><text fill="#000000" font-family="sans-serif" font-size="13" lengthAdjust="spacingAndGlyphs" textLength="186" x="677.47" y="180.8249">Invalid commands are rejected.</text><text fill="#000000" font-family="sans-serif" font-size="13" lengthAdjust="spacingAndGlyphs" textLength="193" x="677.47" y="198.5309">Faults take priority over success.</text><path d="M213.47,380.5158 L213.47,426.0158 L178.71,430.0158 L213.47,434.0158 L213.47,479.0459 A0,0 0 0 0 213.47,479.0459 L420.47,479.0459 A0,0 0 0 0 420.47,479.0459 L420.47,390.5158 L410.47,380.5158 L213.47,380.5158 A0,0 0 0 0 213.47,380.5158 " fill="#FBFB77" filter="url(#f1ehyuvzzjay4z)" style="stroke: #A80036; stroke-width: 1.0;"/><path d="M410.47,380.5158 L410.47,390.5158 L420.47,390.5158 L410.47,380.5158 " fill="#FBFB77" style="stroke: #A80036; stroke-width: 1.0;"/><text fill="#000000" font-family="sans-serif" font-size="13" lengthAdjust="spacingAndGlyphs" textLength="117" x="219.47" y="399.4129">No automatic retry.</text><text fill="#000000" font-family="sans-serif" font-size="13" lengthAdjust="spacingAndGlyphs" textLength="171" x="219.47" y="417.1189">Bus-off requires device reset.</text><text fill="#000000" font-family="sans-serif" font-size="13" lengthAdjust="spacingAndGlyphs" textLength="186" x="219.47" y="434.8249">Every reset returns to Stopped.</text><text fill="#000000" font-family="sans-serif" font-size="13" lengthAdjust="spacingAndGlyphs" textLength="141" x="219.47" y="452.5309">start is rejected in Fault.</text><text fill="#000000" font-family="sans-serif" font-size="13" lengthAdjust="spacingAndGlyphs" textLength="176" x="219.47" y="470.2369">Cleanup failure remains Fault.</text><rect fill="#FEFECE" filter="url(#f1ehyuvzzjay4z)" height="269.0679" rx="12.5" ry="12.5" style="stroke: #A80036; stroke-width: 1.5;" width="366" x="269.97" y="32.5158"/><rect fill="#FFFFFF" height="234" rx="12.5" ry="12.5" style="stroke: #FFFFFF; stroke-width: 1.0;" width="360" x="272.97" y="64.5838"/><line style="stroke: #A80036; stroke-width: 1.5;" x1="269.97" x2="635.97" y1="61.5838" y2="61.5838"/><text fill="#000000" font-family="sans-serif" font-size="14" lengthAdjust="spacingAndGlyphs" textLength="58" x="423.97" y="52.4818">Running</text><ellipse cx="374.96" cy="84.5838" fill="#000000" filter="url(#f1ehyuvzzjay4z)" rx="10" ry="10" style="stroke: none; stroke-width: 1.0;"/><rect fill="#FEFECE" filter="url(#f1ehyuvzzjay4z)" height="50" rx="12.5" ry="12.5" style="stroke: #A80036; stroke-width: 1.5;" width="72" x="338.96" y="131.5838"/><line style="stroke: #A80036; stroke-width: 1.5;" x1="338.96" x2="410.96" y1="160.6517" y2="160.6517"/><text fill="#000000" font-family="sans-serif" font-size="14" lengthAdjust="spacingAndGlyphs" textLength="52" x="348.96" y="151.5497">Waiting</text><rect fill="#FEFECE" filter="url(#f1ehyuvzzjay4z)" height="50" rx="12.5" ry="12.5" style="stroke: #A80036; stroke-width: 1.5;" width="76" x="336.96" y="236.5838"/><line style="stroke: #A80036; stroke-width: 1.5;" x1="336.96" x2="412.96" y1="265.6517" y2="265.6517"/><text fill="#000000" font-family="sans-serif" font-size="14" lengthAdjust="spacingAndGlyphs" textLength="56" x="346.96" y="256.5497">Pending</text><!--MD5=[023aedefa9bee7746affd3953f32a1e7]
link *start*Running to Waiting--><path d="M374.96,94.7338 C374.96,102.7738 374.96,114.9138 374.96,126.2338 " fill="none" id="*start*Running-&gt;Waiting" style="stroke: #A80036; stroke-width: 1.0;"/><polygon fill="#A80036" points="374.96,131.3638,378.96,122.3638,374.96,126.3638,370.96,122.3638,374.96,131.3638" style="stroke: #A80036; stroke-width: 1.0;"/><!--MD5=[ab5927fb042b09e5e15776bea250acc4]
link Waiting to Pending--><path d="M338.85,164.6238 C319.32,170.4638 296.82,180.9638 284.96,199.5838 C269.99,223.0838 302.21,239.7638 332.17,249.6738 " fill="none" id="Waiting-&gt;Pending" style="stroke: #A80036; stroke-width: 1.0;"/><polygon fill="#A80036" points="336.95,251.2038,329.6051,244.6423,332.1897,249.6742,327.1578,252.2587,336.95,251.2038" style="stroke: #A80036; stroke-width: 1.0;"/><text fill="#000000" font-family="sans-serif" font-size="13" lengthAdjust="spacingAndGlyphs" textLength="157" x="285.96" y="214.4808">due / single-shot accepted</text><!--MD5=[68ad1d2d9aad0de840300185ad7998a3]
link Pending to Waiting--><path d="M413.25,245.4338 C434.47,234.5738 454.61,218.5438 443.96,199.5838 C437.59,188.2538 426.79,179.6238 415.6,173.2138 " fill="none" id="Pending-&gt;Waiting" style="stroke: #A80036; stroke-width: 1.0;"/><polygon fill="#A80036" points="411.13,170.7838,417.1157,178.605,415.5195,173.178,420.9465,171.5819,411.13,170.7838" style="stroke: #A80036; stroke-width: 1.0;"/><text fill="#000000" font-family="sans-serif" font-size="13" lengthAdjust="spacingAndGlyphs" textLength="155" x="446.96" y="214.4808">TX_SUCCESS without fault</text><!--MD5=[620baed8f25f015c0eaeea776640b308]
link *start to Stopped--><path d="M1050.64,439.4858 C1044.7,450.2958 1033.01,468.8758 1017.97,479.5158 C950,527.5758 700.3,564.0658 599.04,577.2058 " fill="none" id="*start-&gt;Stopped" style="stroke: #A80036; stroke-width: 1.0;"/><polygon fill="#A80036" points="594.04,577.8558,603.4787,580.6686,598.9987,577.2146,602.4527,572.7347,594.04,577.8558" style="stroke: #A80036; stroke-width: 1.0;"/><!--MD5=[39a0dd91b83b03cd385a842dff93b69a]
link Stopped to Running--><path d="M594.34,577.3358 C646.35,568.0158 737.38,543.0858 777.97,479.5158 C801.64,442.4258 799.13,419.0958 777.97,380.5158 C746.54,323.2258 708.74,337.1458 653.97,301.5158 C649.46,298.5858 644.91,295.6158 640.31,292.6158 " fill="none" id="Stopped-&gt;Running" style="stroke: #A80036; stroke-width: 1.0;"/><polygon fill="#A80036" points="636.09,289.8458,641.4124,298.1327,640.2678,292.5929,645.8076,291.4483,636.09,289.8458" style="stroke: #A80036; stroke-width: 1.0;"/><text fill="#000000" font-family="sans-serif" font-size="13" lengthAdjust="spacingAndGlyphs" textLength="168" x="794.97" y="435.4129">start / initialization succeeds</text><!--MD5=[00b56763725ac829214e47f81b383909]
link Running to Stopped--><path d="M517.51,301.9658 C521.06,311.8358 524.27,321.7558 526.97,331.5158 C548.54,409.4758 554.08,505.3458 555.49,552.8858 " fill="none" id="Running-&gt;Stopped" style="stroke: #A80036; stroke-width: 1.0;"/><polygon fill="#A80036" points="555.64,558.1658,559.3813,549.0553,555.4972,553.1679,551.3846,549.2838,555.64,558.1658" style="stroke: #A80036; stroke-width: 1.0;"/><text fill="#000000" font-family="sans-serif" font-size="13" lengthAdjust="spacingAndGlyphs" textLength="212" x="552.97" y="435.4129">stop or USB loss / cleanup succeeds</text><!--MD5=[857784caf52594efc7998748bc280999]
link Stopped to Fault--><path d="M517.95,572.0658 C484.07,562.2858 433.42,546.5158 390.97,528.5158 C374.31,521.4558 372.05,515.4858 354.97,509.5158 C287.08,485.8058 258.72,514.6358 195.97,479.5158 C187.01,474.5058 178.9,466.9958 172.15,459.3758 " fill="none" id="Stopped-&gt;Fault" style="stroke: #A80036; stroke-width: 1.0;"/><polygon fill="#A80036" points="168.54,455.1458,171.3396,464.5884,171.7857,458.9492,177.4249,459.3953,168.54,455.1458" style="stroke: #A80036; stroke-width: 1.0;"/><text fill="#000000" font-family="sans-serif" font-size="13" lengthAdjust="spacingAndGlyphs" textLength="137" x="391.97" y="524.4129">start / initialization fails</text><!--MD5=[8446502df2942c2237b72119ea6dd89a]
link Fault to Stopped--><path d="M125.29,447.6458 C96.35,467.6758 57.26,501.9658 80.97,528.5158 C109.5,560.4758 400.99,576.0058 512.71,580.8258 " fill="none" id="Fault-&gt;Stopped" style="stroke: #A80036; stroke-width: 1.0;"/><polygon fill="#A80036" points="517.89,581.0458,509.0701,576.6631,512.8946,580.8311,508.7265,584.6557,517.89,581.0458" style="stroke: #A80036; stroke-width: 1.0;"/><text fill="#000000" font-family="sans-serif" font-size="13" lengthAdjust="spacingAndGlyphs" textLength="264" x="81.97" y="524.4129">stop / cleanup succeeds and no bus-off latch</text><!--MD5=[19e9edf1e3a524b9dba9e0881a291e7a]
link Running to Fault--><path d="M269.79,187.1758 C176.53,207.2658 70.88,248.2158 12.97,331.5158 C-18.51,376.7958 70.24,407.9658 120.32,421.4658 " fill="none" id="Running-&gt;Fault" style="stroke: #A80036; stroke-width: 1.0;"/><polygon fill="#A80036" points="125.33,422.7958,117.6623,416.6148,120.4984,421.5093,115.6038,424.3454,125.33,422.7958" style="stroke: #A80036; stroke-width: 1.0;"/><text fill="#000000" font-family="sans-serif" font-size="13" lengthAdjust="spacingAndGlyphs" textLength="292" x="13.97" y="346.4129">submission failure, TX_FAILED, timeout or bus-off</text><!--MD5=[19e9edf1e3a524b9dba9e0881a291e7a]
link Running to Fault--><path d="M366.09,301.8458 C349.57,320.2058 331.08,337.2658 310.97,350.5158 C266.85,379.5658 241.15,353.1458 195.97,380.5158 C187.27,385.7858 179.28,393.2858 172.56,400.8258 " fill="none" id="Running-&gt;Fault-1" style="stroke: #A80036; stroke-width: 1.0;"/><polygon fill="#A80036" points="168.97,405.0058,177.872,400.7923,172.231,401.2156,171.8077,395.5746,168.97,405.0058" style="stroke: #A80036; stroke-width: 1.0;"/><text fill="#000000" font-family="sans-serif" font-size="13" lengthAdjust="spacingAndGlyphs" textLength="181" x="336.97" y="346.4129">stop or USB loss / cleanup fails</text><!--MD5=[62e911bc3b34fad474ed841d36f4ac20]
link Stopped to Stopped--><path d="M594.27,571.8058 C612.7,570.3658 628.97,574.2658 628.97,583.5158 C628.97,591.8958 615.61,595.8858 599.39,595.4858 " fill="none" id="Stopped-&gt;Stopped" style="stroke: #A80036; stroke-width: 1.0;"/><polygon fill="#A80036" points="594.27,595.2258,603.052,599.6841,599.2634,595.4834,603.4641,591.6947,594.27,595.2258" style="stroke: #A80036; stroke-width: 1.0;"/><text fill="#000000" font-family="sans-serif" font-size="13" lengthAdjust="spacingAndGlyphs" textLength="224" x="634.97" y="588.9129">stop, status, help or invalid command</text></g></svg>